<svg version="1.1" id="Layer_1" xmlns="http://www.w3.org/2000/svg" xmlns:xlink="http://www.w3.org/1999/xlink" x="0px" y="0px" width="58px" height="58px" viewBox="0 0 600 600" enable-background="new 0 0 600 600" xml:space="preserve"><path id="color_x5F_1_38_" fill="#02283F" d="M298.119,150.919c-79.971-8.282-152.151,16.029-218.845,84.167    c-66.691,68.139-73.26,102.871-73.26,102.871c107.073,70.787,258.141-110.398,317.469-137.021    c46.036-20.658,266.738,86.242,266.738,86.242S388.287,160.271,298.119,150.919z"></path><path id="color_x5F_2_13_" fill="#F15A22" d="M170.39,412.754c0,0,166.245,0.018,234.809-8.006c0,0-381.34,125.578-399.184-38.744    c0,0,44.146,45.97,174.707-13.754c130.558-59.717,170.001-12.418,242.315,0c72.328,12.434,170.948,0.573,170.948,0.573    s-124.921,47.914-235.756,43.92C247.405,392.73,222.042,394.051,170.39,412.754z M450.989,297.137v-27.049    c-8.198-3.092-16.233-6.095-23.954-8.918v34.101C435.28,295.772,443.24,296.407,450.989,297.137z M485.149,301.139v-17.868    c-7.945-3.11-15.978-6.227-23.943-9.293v24.184C469.524,299.064,477.524,300.063,485.149,301.139z M416.821,294.73v-37.25    c-8.649-3.075-16.702-5.844-23.954-8.197v44.736C401.039,294.132,409.032,294.366,416.821,294.73z M519.317,306.828v-9.995    c-7.688-3.074-15.711-6.277-23.952-9.535v15.353C503.905,303.987,511.867,305.395,519.317,306.828z M203.021,317.578    c64.353-17.62,125.716-23.664,179.631-23.664v-47.827c-8.67-2.596-15.521-4.272-19.716-4.662    C330.526,238.42,203.021,317.578,203.021,317.578z"></path><path fill="#424142" d="M545.313,488.532c0-0.016,0-0.033,0-0.064l-0.055,0.064H545.313z"></path></svg>